HIERARCHY
ROOT Hips
{
	OFFSET -0.001795 -0.223333 0.028219
	CHANNELS 6 Xposition Yposition Zposition Zrotation Yrotation Xrotation 
	JOINT LeftUpLeg
	{
		OFFSET 0.069520 -0.091406 -0.006815
		CHANNELS 3 Zrotation Yrotation Xrotation
		JOINT LeftLeg
		{
			OFFSET 0.034277 -0.375199 -0.004496
			CHANNELS 3 Zrotation Yrotation Xrotation
			JOINT LeftFoot
			{
				OFFSET -0.013596 -0.397961 -0.043693
				CHANNELS 3 Zrotation Yrotation Xrotation
				JOINT LeftToe
				{
					OFFSET 0.026358 -0.055791 0.119288
					CHANNELS 3 Zrotation Yrotation Xrotation
					End Site
					{
						OFFSET 0.000000 0.000000 0.000000
					}
				}
			}
		}
	}
	JOINT RightUpLeg
	{
		OFFSET -0.067670 -0.090522 -0.004320
		CHANNELS 3 Zrotation Yrotation Xrotation
		JOINT RightLeg
		{
			OFFSET -0.038290 -0.382569 -0.008850
			CHANNELS 3 Zrotation Yrotation Xrotation
			JOINT RightFoot
			{
				OFFSET 0.015774 -0.398415 -0.042312
				CHANNELS 3 Zrotation Yrotation Xrotation
				JOINT RightToe
				{
					OFFSET -0.025372 -0.048144 0.123348
					CHANNELS 3 Zrotation Yrotation Xrotation
					End Site
					{
						OFFSET 0.000000 0.000000 0.000000
					}
				}
			}
		}
	}
	JOINT Spine
	{
		OFFSET -0.002533 0.108963 -0.026696
		CHANNELS 3 Zrotation Yrotation Xrotation
		JOINT Spine1
		{
			OFFSET 0.005487 0.135180 0.001092
			CHANNELS 3 Zrotation Yrotation Xrotation
			JOINT Spine2
			{
				OFFSET 0.001457 0.052922 0.025425
				CHANNELS 3 Zrotation Yrotation Xrotation
				JOINT Neck
				{
					OFFSET -0.002778 0.213870 -0.042857
					CHANNELS 3 Zrotation Yrotation Xrotation
					JOINT Head
					{
						OFFSET 0.005152 0.064970 0.051349
						CHANNELS 3 Zrotation Yrotation Xrotation
						End Site
						{
							OFFSET 0.000000 0.000000 0.000000
						}
					}
				}
				JOINT LeftShoulder
				{
					OFFSET 0.078845 0.121749 -0.034090
					CHANNELS 3 Zrotation Yrotation Xrotation
					JOINT LeftArm
					{
						OFFSET 0.090977 0.030469 -0.008868
						CHANNELS 3 Zrotation Yrotation Xrotation
						JOINT LeftForeArm
						{
							OFFSET 0.259612 -0.012772 -0.027456
							CHANNELS 3 Zrotation Yrotation Xrotation
							JOINT LeftHand
							{
								OFFSET 0.249234 0.008986 -0.001171
								CHANNELS 3 Zrotation Yrotation Xrotation
								End Site
								{
									OFFSET 0.000000 0.000000 0.000000
								}
							}
						}
					}
				}
				JOINT RightShoulder
				{
					OFFSET -0.081759 0.118833 -0.038615
					CHANNELS 3 Zrotation Yrotation Xrotation
					JOINT RightArm
					{
						OFFSET -0.096012 0.032551 -0.009143
						CHANNELS 3 Zrotation Yrotation Xrotation
						JOINT RightForeArm
						{
							OFFSET -0.253742 -0.013329 -0.021401
							CHANNELS 3 Zrotation Yrotation Xrotation
							JOINT RightHand
							{
								OFFSET -0.255298 0.007772 -0.005559
								CHANNELS 3 Zrotation Yrotation Xrotation
								End Site
								{
									OFFSET 0.000000 0.000000 0.000000
								}
							}
						}
					}
				}
			}
		}
	}
}
MOTION
Frames: 8
Frame Time: 0.050000
0.079277 0.933581 -0.088090 -2.665218 -40.823028 7.665725 4.989317 0.451849 -13.404480 -1.762570 1.436969 13.130827 10.969749 19.256779 10.446108 0.000000 0.000000 0.000000 -8.067566 2.207408 -17.740117 4.995411 0.774895 14.017782 -1.067434 -4.536970 2.575103 0.000000 0.000000 0.000000 6.507261 -0.640561 15.994684 0.391415 2.521799 13.952305 -7.282558 2.585356 -2.044743 14.928644 -11.571272 1.877860 0.000000 0.000000 0.000000 0.902917 -43.035890 17.037299 15.371267 -48.255385 -7.121298 88.429025 -1.551976 1.265138 0.000000 0.000000 0.000000 -5.722915 41.292316 12.300781 -15.642232 50.131160 -11.204406 -68.714988 -2.079211 1.303780 0.000000 0.000000 0.000000 
0.077846 0.933110 -0.089772 -2.967919 -41.428069 7.356916 5.529152 0.536494 -12.331415 -2.152491 1.495387 12.401582 11.207119 19.746919 10.326030 0.000000 0.000000 0.000000 -7.699357 2.196715 -17.620345 5.076435 0.844915 14.539015 -0.919357 -3.987601 2.335244 0.000000 0.000000 0.000000 6.555847 -0.619276 16.085611 0.769483 2.500941 14.600156 -7.568053 1.953142 -2.566116 14.731844 -11.482831 2.666246 0.000000 0.000000 0.000000 -1.109561 -42.786651 17.899916 12.906335 -47.395699 -6.139886 89.606671 -3.387229 -0.332010 0.000000 0.000000 0.000000 -3.769753 41.700976 12.783960 -14.620340 51.911099 -11.233004 -71.488032 0.505159 -0.494793 0.000000 0.000000 0.000000 
0.076128 0.932837 -0.091097 -3.107682 -41.812763 6.998018 5.882545 0.595668 -11.722767 -2.376097 1.579436 12.357950 11.327224 19.977302 10.343905 0.000000 0.000000 0.000000 -7.511818 2.196607 -17.620890 5.267740 0.920872 15.286910 -0.880368 -3.704796 2.128659 0.000000 0.000000 0.000000 6.398076 -0.594574 15.766652 1.138899 2.507423 15.420139 -7.725437 1.545971 -2.867338 14.706381 -11.582667 3.583402 0.000000 0.000000 0.000000 -3.183114 -43.010808 18.981752 11.252346 -46.212171 -5.465292 90.106645 -4.687623 -1.571683 0.000000 0.000000 0.000000 -1.234577 41.704595 13.281465 -12.252949 53.622746 -10.473973 -75.590677 4.390496 -3.555577 0.000000 0.000000 0.000000 
0.074325 0.932257 -0.091937 -3.375836 -41.886642 6.581424 6.222767 0.618474 -10.548156 -2.412848 1.492029 11.566936 11.319584 20.175135 9.973106 0.000000 0.000000 0.000000 -7.113678 2.175629 -17.521455 5.314919 1.044201 16.298003 -0.988711 -3.662568 1.834927 0.000000 0.000000 0.000000 6.137056 -0.564723 15.520614 1.947543 2.320188 16.614497 -8.227592 1.254550 -3.731553 14.751635 -11.837380 5.024953 0.000000 0.000000 0.000000 -4.682485 -43.061785 19.647347 8.985510 -45.192571 -4.651301 91.294066 -6.578294 -3.454044 0.000000 0.000000 0.000000 1.600171 42.036008 14.049516 -9.725258 54.842462 -9.284288 -79.024832 7.899942 -6.586798 0.000000 0.000000 0.000000 
0.072788 0.931698 -0.092331 -3.458546 -41.637514 6.222209 6.419713 0.625683 -9.932947 -2.423667 1.451404 11.311262 11.150089 20.068265 9.596287 0.000000 0.000000 0.000000 -6.899901 2.148158 -17.416355 5.360289 1.128711 17.074831 -1.207053 -3.900507 1.572323 0.000000 0.000000 0.000000 5.957167 -0.564818 14.910403 2.592929 2.104456 17.474147 -8.677068 1.284697 -3.986444 15.070238 -12.279443 5.784743 0.000000 0.000000 0.000000 -6.368833 -43.533779 20.560891 7.569335 -44.006098 -4.150943 92.751509 -8.455355 -5.520471 0.000000 0.000000 0.000000 4.149049 42.505240 14.890694 -6.836890 55.451871 -7.737852 -82.418777 11.661010 -10.156571 0.000000 0.000000 0.000000 
0.071692 0.931271 -0.092577 -3.277954 -41.347203 5.602554 6.557107 0.613604 -9.055875 -2.756560 1.466937 10.709363 10.936660 19.890996 9.245508 0.000000 0.000000 0.000000 -6.679392 2.113024 -17.270798 4.980801 1.291143 17.973022 -1.444055 -4.149695 1.277366 0.000000 0.000000 0.000000 5.762713 -0.546382 14.764221 3.156583 1.808594 17.858607 -9.367676 1.832756 -4.046170 15.840517 -13.185213 6.453105 0.000000 0.000000 0.000000 -7.047461 -44.125363 20.952539 6.016627 -43.171424 -3.656130 93.968223 -10.310509 -7.685436 0.000000 0.000000 0.000000 6.092980 42.498684 15.522541 -4.930194 55.929154 -6.631788 -84.335757 14.649390 -12.942413 0.000000 0.000000 0.000000 
0.071281 0.930785 -0.092792 -3.127377 -40.711752 5.170178 6.616388 0.596975 -8.743020 -2.887262 1.470835 10.615429 10.580149 19.449771 8.804435 0.000000 0.000000 0.000000 -6.625379 2.062688 -17.045746 4.856863 1.350895 18.451463 -1.758618 -4.676342 1.081423 0.000000 0.000000 0.000000 5.732624 -0.560494 14.415880 3.414235 1.706056 18.437536 -9.552458 2.400236 -4.168568 16.744962 -14.098542 6.600814 0.000000 0.000000 0.000000 -7.856957 -44.794820 21.458746 5.484387 -42.719735 -3.513004 94.293947 -12.190006 -9.851174 0.000000 0.000000 0.000000 8.277214 42.735326 16.401022 -3.949558 55.290708 -5.792467 -85.926056 16.139870 -14.384308 0.000000 0.000000 0.000000 
0.071440 0.930769 -0.093165 -3.001869 -40.436119 4.659290 6.475334 0.550479 -8.296073 -2.756972 1.407788 10.521939 10.433106 19.274929 8.677706 0.000000 0.000000 0.000000 -6.754813 2.044165 -16.990278 5.051035 1.415316 19.199110 -1.894688 -5.007163 1.100965 0.000000 0.000000 0.000000 5.791115 -0.570207 14.153236 3.766862 1.554690 18.924453 -10.351149 3.304082 -3.930292 17.478940 -14.942405 6.574705 0.000000 0.000000 0.000000 -7.598415 -45.647582 21.467625 4.856759 -42.608894 -3.359928 94.427571 -14.297165 -12.273202 0.000000 0.000000 0.000000 10.426139 42.745688 17.273009 -4.495047 54.534793 -5.707555 -85.725257 16.069863 -13.887385 0.000000 0.000000 0.000000 
